<svg xmlns="http://www.w3.org/2000/svg" viewBox="0 0 348.81 408.69"><defs><style>.cls-1{fill:#ccc;}.cls-2{fill:none;}</style></defs><g id="Calque_2" data-name="Calque 2"><g id="Calque_1-2" data-name="Calque 1"><path class="cls-1" d="M118.56,408.69H105.78c-.19-.17-.37-.45-.59-.49-14.88-2.45-26.35-10.83-36.69-21.15C55,373.6,44.39,358,34.92,341.61,10.55,299.45-2.76,254.4.48,205.28,1.66,187.35,5.66,170,14.3,154.08a114.78,114.78,0,0,1,53-50.16c16.17-7.66,33.29-10.62,50.89-6.78,11.63,2.54,23,6.4,34.37,10,11.85,3.81,23.81,7.48,36.31,5.08a176.23,176.23,0,0,0,25.93-7.55c12.45-4.45,25-8.32,38.27-9,26-1.34,48.2,8,67.71,24.41,5.91,5,11.07,10.85,16.76,16.51-32.65,19.84-48.92,48-45.88,85.35,3,37.1,22.95,63.09,57.18,78-.24.78-.35,1.29-.55,1.77a310.24,310.24,0,0,1-39.81,68c-13.76,17.86-28.73,34.44-52.51,39H244.76c-9.44-3.42-19-6.53-28.3-10.33-22-9-44-9.15-66.15-1.1Q134.44,403,118.56,408.69Z"/><path class="cls-2" d="M118.56,408.69q15.87-5.7,31.75-11.43c22.19-8.05,44.18-7.88,66.15,1.1,9.29,3.8,18.86,6.91,28.3,10.33Z"/><path class="cls-1" d="M169,97.85C161.46,59.53,196,6.08,250.47,0,259,38.13,222.86,98.78,169,97.85Z"/></g></g></svg>