<svg xmlns="http://www.w3.org/2000/svg" xmlns:xlink="http://www.w3.org/1999/xlink" viewBox="0 0 42.89 42.89"><defs><style>.cls-1{fill:url(#FINYOURGAME);}</style><linearGradient id="FINYOURGAME" x1="-1033.54" y1="-861.12" x2="-990.64" y2="-861.12" gradientTransform="translate(1033.54 882.56)" gradientUnits="userSpaceOnUse"><stop offset="0" stop-color="aqua"/><stop offset="0.11" stop-color="#25dae8"/><stop offset="0.36" stop-color="#718eb7"/><stop offset="0.58" stop-color="#ae5190"/><stop offset="0.77" stop-color="#da2574"/><stop offset="0.91" stop-color="#f50a62"/><stop offset="1" stop-color="#ff005c"/></linearGradient></defs><g id="Calque_2" data-name="Calque 2"><g id="GAME_VIEW_1" data-name="GAME VIEW 1"><path class="cls-1" d="M21.45,0A21.45,21.45,0,1,0,42.89,21.45,21.45,21.45,0,0,0,21.45,0Zm7.21,22.84-9.57,9.57a2.12,2.12,0,1,1-3-3l8.07-8.07-8.07-8.07a2.12,2.12,0,0,1,3-3l9.57,9.57a2.12,2.12,0,0,1,0,3Zm12-1.33A19.25,19.25,0,1,1,21.36,2.26,19.25,19.25,0,0,1,40.61,21.51Z"/></g></g></svg>