<svg xmlns="http://www.w3.org/2000/svg" xmlns:xlink="http://www.w3.org/1999/xlink" viewBox="0 0 42.89 42.89"><defs><style>.cls-1{fill:url(#FINYOURGAME);}</style><linearGradient id="FINYOURGAME" x1="706.46" y1="-1559.12" x2="749.36" y2="-1559.12" gradientTransform="translate(749.36 -1537.67) rotate(180)" gradientUnits="userSpaceOnUse"><stop offset="0" stop-color="aqua"/><stop offset="0.11" stop-color="#25dae8"/><stop offset="0.36" stop-color="#718eb7"/><stop offset="0.58" stop-color="#ae5190"/><stop offset="0.77" stop-color="#da2574"/><stop offset="0.91" stop-color="#f50a62"/><stop offset="1" stop-color="#ff005c"/></linearGradient></defs><g id="Calque_2" data-name="Calque 2"><g id="GAME_VIEW_1" data-name="GAME VIEW 1"><path class="cls-1" d="M21.45,42.89A21.45,21.45,0,1,0,0,21.45,21.44,21.44,0,0,0,21.45,42.89ZM14.23,20.05l9.57-9.57a2.13,2.13,0,1,1,3,3l-8.07,8.06,8.07,8.07a2.13,2.13,0,0,1-3,3l-9.57-9.57a2.13,2.13,0,0,1,0-3ZM2.29,21.38A19.25,19.25,0,1,1,21.53,40.63,19.24,19.24,0,0,1,2.29,21.38Z"/></g></g></svg>