<?xml version="1.0" encoding="utf-8"?>
<!-- Generator: Adobe Illustrator 25.4.1, SVG Export Plug-In . SVG Version: 6.00 Build 0)  -->
<svg version="1.1" id="Calque_1" xmlns="http://www.w3.org/2000/svg" xmlns:xlink="http://www.w3.org/1999/xlink" x="0px" y="0px"
	 viewBox="0 0 381 381" style="enable-background:new 0 0 381 381;" xml:space="preserve">
<style type="text/css">
	.st0{fill:url(#SVGID_1_);}
	.st1{fill:url(#SVGID_00000072983731671809969290000011192949718180360104_);}
	.st2{fill:url(#SVGID_00000075142626170897392730000007787930614995335596_);}
	.st3{fill:url(#SVGID_00000084487970726697283210000018352380311651839385_);}
</style>
<linearGradient id="SVGID_1_" gradientUnits="userSpaceOnUse" x1="0" y1="200.4489" x2="380.057" y2="200.4489">
	<stop  offset="0" style="stop-color:#00FFFF"/>
	<stop  offset="0.1085" style="stop-color:#24DBE8"/>
	<stop  offset="0.3585" style="stop-color:#718EB7"/>
	<stop  offset="0.5815" style="stop-color:#AE5190"/>
	<stop  offset="0.7693" style="stop-color:#DA2574"/>
	<stop  offset="0.9147" style="stop-color:#F50A62"/>
	<stop  offset="1" style="stop-color:#FF005C"/>
</linearGradient>
<path class="st0" d="M370.1,231.9c-5.5,0-10,4.5-10,10v88.7c0,16.5-13.4,29.9-30,30H49.9c-16.5,0-29.9-13.4-30-30V70.3
	c0-16.5,13.4-29.9,30-30h88.7c5.5,0,10-4.5,10-10s-4.5-10-10-10H49.9C22.4,20.4,0,42.8,0,70.3v260.2c0,27.6,22.4,49.9,49.9,49.9
	h280.2c27.6,0,49.9-22.4,49.9-49.9v-88.7C380.1,236.4,375.6,231.9,370.1,231.9z"/>
<linearGradient id="SVGID_00000146470374136159210550000006258090606481243051_" gradientUnits="userSpaceOnUse" x1="156.1483" y1="129.9657" x2="348.9795" y2="129.9657">
	<stop  offset="0" style="stop-color:#00FFFF"/>
	<stop  offset="0.1085" style="stop-color:#24DBE8"/>
	<stop  offset="0.3585" style="stop-color:#718EB7"/>
	<stop  offset="0.5815" style="stop-color:#AE5190"/>
	<stop  offset="0.7693" style="stop-color:#DA2574"/>
	<stop  offset="0.9147" style="stop-color:#F50A62"/>
	<stop  offset="1" style="stop-color:#FF005C"/>
</linearGradient>
<path style="fill:url(#SVGID_00000146470374136159210550000006258090606481243051_);" d="M156.1,179.4L302,33.5l47,47L203.2,226.4
	L156.1,179.4z"/>
<linearGradient id="SVGID_00000037673451337217434330000007725090552491665050_" gradientUnits="userSpaceOnUse" x1="132.3574" y1="224.191" x2="184.3236" y2="224.191">
	<stop  offset="0" style="stop-color:#00FFFF"/>
	<stop  offset="0.1085" style="stop-color:#24DBE8"/>
	<stop  offset="0.3585" style="stop-color:#718EB7"/>
	<stop  offset="0.5815" style="stop-color:#AE5190"/>
	<stop  offset="0.7693" style="stop-color:#DA2574"/>
	<stop  offset="0.9147" style="stop-color:#F50A62"/>
	<stop  offset="1" style="stop-color:#FF005C"/>
</linearGradient>
<path style="fill:url(#SVGID_00000037673451337217434330000007725090552491665050_);" d="M132.4,250.2l52-14.4l-37.6-37.6
	L132.4,250.2z"/>
<linearGradient id="SVGID_00000006700561017877756020000000490949523738541968_" gradientUnits="userSpaceOnUse" x1="316.0842" y1="33.9904" x2="381.001" y2="33.9904">
	<stop  offset="0" style="stop-color:#00FFFF"/>
	<stop  offset="0.1085" style="stop-color:#24DBE8"/>
	<stop  offset="0.3585" style="stop-color:#718EB7"/>
	<stop  offset="0.5815" style="stop-color:#AE5190"/>
	<stop  offset="0.7693" style="stop-color:#DA2574"/>
	<stop  offset="0.9147" style="stop-color:#F50A62"/>
	<stop  offset="1" style="stop-color:#FF005C"/>
</linearGradient>
<path style="fill:url(#SVGID_00000006700561017877756020000000490949523738541968_);" d="M362,8.8c-9.8-9.7-25.6-9.7-35.3,0
	l-10.6,10.6l47,47l10.6-10.6c9.7-9.8,9.7-25.6,0-35.3L362,8.8z"/>
</svg>
