<svg xmlns="http://www.w3.org/2000/svg" viewBox="0 0 63.18 60.55"><defs><style>.cls-1{fill:#ffe09a;}</style></defs><g id="Calque_2" data-name="Calque 2"><g id="GAME_VIEW_1" data-name="GAME VIEW 1"><path class="cls-1" d="M63,22.88a3.36,3.36,0,0,0-2.89-2.31L41.89,18.92,34.68,2A3.36,3.36,0,0,0,28.5,2L21.29,18.92,3.05,20.57a3.37,3.37,0,0,0-1.9,5.88L14.93,38.54l-4.06,17.9a3.36,3.36,0,0,0,1.3,3.47,3.4,3.4,0,0,0,2,.64,3.31,3.31,0,0,0,1.72-.48l15.73-9.4,15.73,9.4a3.35,3.35,0,0,0,5-3.63l-4.06-17.9L62,26.45A3.36,3.36,0,0,0,63,22.88Z"/></g></g></svg>