<svg xmlns="http://www.w3.org/2000/svg" viewBox="0 0 260.48 305"><defs><style>.cls-1{fill:#ccc;}</style></defs><g id="Calque_2" data-name="Calque 2"><g id="Layer_1" data-name="Layer 1"><path class="cls-1" d="M252.4,244.89c-8.94-3.66-12.77-8.53-12.4-15.78.38-8.47-4.42-14.67-6.7-17.12,1.38-5.26,5.4-23.47,0-39.29-5.8-16.93-23.52-42.78-41.8-68.2-7.49-10.44-7.84-21.79-8.25-34.92-.39-12.53-.84-26.74-7.82-42.53-7.6-17.19-22.85-27-41.84-27a57.31,57.31,0,0,0-31.81,9.68C83.51,22.29,85.93,49.78,87.53,68c.22,2.5.42,4.85.54,6.86,1.07,17.81.1,27.2-1.17,30.06-.82,1.86-4.85,7.17-9.12,12.79-4.41,5.81-9.41,12.4-13.51,18.54-4.9,7.39-8.85,18.68-12.67,29.6-2.79,8-5.43,15.53-8,20A27.33,27.33,0,0,0,41,206.37a21.07,21.07,0,0,0-6.76,8.56c-2.71,5.8-8.23,8.91-19.7,11.12-5.27,1.08-8.9,3.29-10.8,6.58-2.77,4.79-1.26,10.81.11,14.93,2,6.05.77,9.87-1.53,16.82C1.74,266,1.14,267.8.53,269.81a9.77,9.77,0,0,0,1,8.54c4.33,6.62,17,9,30,10.49,7.77.92,16.27,4,24.5,7,8,2.94,16.39,6,24,6.91a28.21,28.21,0,0,0,3.39.22,20,20,0,0,0,18.24-10.71,203.57,203.57,0,0,1,32.87-3.88,142.73,142.73,0,0,1,32.67,3.36c1.26,2.4,4.57,7.89,9.85,10.72a23.8,23.8,0,0,0,11.07,2.5h0a26.73,26.73,0,0,0,19.47-8c6.63-7,23.2-16,35.3-22.55,2.7-1.46,5.22-2.83,7.44-4.07,6.8-3.77,10.51-9.15,10.17-14.77A12.46,12.46,0,0,0,252.4,244.89Zm-150.47-1.35c-.84-6-8.51-11.88-17.39-18.72-7.26-5.6-15.49-11.94-17.76-17.31-4.68-11.08-1-30.57,5.45-40.6,3.18-5,5.78-12.65,8.3-20,2.71-8,5.52-16.19,8.66-19.79,5-5.62,9.56-16.56,10.38-25.18,4.65,4.44,11.87,10.08,18.54,10.08a10.88,10.88,0,0,0,3-.4c4.56-1.32,11.28-5.2,17.77-9,5.6-3.23,12.5-7.22,15.09-7.58,4.46,6.39,30.33,63.65,33,82a87,87,0,0,1-1.23,31.29,23.44,23.44,0,0,0-3.08-.22c-7.21,0-9.12,3.93-9.61,6.28-1.28,6.11-1.42,25.62-1.43,30-2.61,3.31-15.79,18.9-34.71,21.7a150.16,150.16,0,0,1-21.39,1.69,72.82,72.82,0,0,1-10.55-.65l-9.51-10.88C99.17,254.49,102.92,250.58,101.93,243.54ZM114,64.15c-.3.13-.59.26-.88.41a16.32,16.32,0,0,0-.2-2c-1-6-5-10.31-9.42-10.31a6,6,0,0,0-1,.08c-2.63.43-4.69,2.41-5.82,5.21,1-6.14,4.47-10.69,8.6-10.69,4.85,0,8.94,6.53,8.94,14.27A22.1,22.1,0,0,1,114,64.15Zm37.68,4.61a15,15,0,0,0,.69-4.54c0-7-4.45-12.5-10.13-12.5s-10.07,5.61-10.07,12.5c0,.47,0,1,.06,1.42l-.86-.33a19.15,19.15,0,0,1-1-6c0-8.39,5.36-15.21,12-15.21s11.95,6.82,11.95,15.21A17.89,17.89,0,0,1,151.68,68.76Zm-4.86,16.32c-.09.42-.29.61-2.53,1.77-1.12.59-2.53,1.32-4.29,2.39l-1.17.71c-4.72,2.86-15.76,9.56-18.76,10-2,.28-3.3-.51-6.13-2.44-.64-.43-1.32-.89-2-1.36-5.1-3.35-8.39-7-8.76-8.48,1.66-1.29,5.79-4.51,7.9-6.42,4.29-4,8.61-6.67,10.75-6.67a1.73,1.73,0,0,1,.32,0c2.51.44,8.7,2.92,13.22,4.72,2.09.83,3.89,1.55,5.16,2C144.49,82.66,146.57,84.42,146.82,85.08Zm36,186.37c2.26-10.18,4.86-24,4.44-32.2-.1-1.85-.26-3.87-.42-5.82-.3-3.65-.74-9.08-.29-10.69a1.89,1.89,0,0,1,.31-.1c0,4.66,1,14,8.47,17.22a18.75,18.75,0,0,0,7.54,1.46c7.46,0,15.74-3.66,19.13-7a35.51,35.51,0,0,0,4.85-6.37,7.88,7.88,0,0,1,.33,3c-.44,6.89,2.9,16,9.27,19.39l.93.49c2.27,1.19,8.29,4.35,8.39,5.85a1.29,1.29,0,0,1-.39.49c-1.51,1.38-6.82,4.09-12,6.71-9.11,4.65-19.43,9.93-24.07,14.8-6.53,6.88-13.92,11.49-18.38,11.49a5.1,5.1,0,0,1-1.46-.2C184.62,288.41,180.63,281.42,182.77,271.45Zm-165.11-26c-.49-2.31-.88-4.14-.46-5.91.3-1.31,6.77-2.71,9.53-3.31,3.88-.84,7.9-1.72,10.52-3.31,3.55-2.15,5.48-6.12,7.17-9.62,1.23-2.53,2.5-5.14,4-6a.81.81,0,0,1,.46-.11c2.83,0,8.76,5.94,12.18,11.26.87,1.34,2.47,4,4.33,7.14,5.56,9.3,13.17,22,17.14,26.3,3.58,3.84,9.38,11.21,7.95,17.54-1,4.91-6.6,8.9-7.91,9.78a8,8,0,0,1-1.76.17c-7.61,0-22.66-6.33-30.75-9.73l-1.2-.5c-4.51-1.9-11.89-3.09-19-4.24-5.67-.92-13.44-2.18-14.73-3.32-1-1.17.17-5,1.23-8.33a53.32,53.32,0,0,0,2-7.53A27.33,27.33,0,0,0,17.66,245.48Z"/></g></g></svg>