<svg xmlns="http://www.w3.org/2000/svg" xmlns:xlink="http://www.w3.org/1999/xlink" viewBox="0 0 56.23 44.6"><defs><style>.cls-1{fill:url(#FINYOURGAME);}.cls-2{fill:url(#FINYOURGAME-2);}.cls-3{fill:url(#FINYOURGAME-3);}.cls-4{fill:url(#FINYOURGAME-4);}.cls-5{fill:url(#FINYOURGAME-5);}.cls-6{fill:url(#FINYOURGAME-6);}.cls-7{fill:url(#FINYOURGAME-7);}.cls-8{fill:url(#FINYOURGAME-8);}.cls-9{fill:url(#FINYOURGAME-9);}.cls-10{fill:url(#FINYOURGAME-10);}.cls-11{fill:url(#FINYOURGAME-11);}.cls-12{fill:url(#FINYOURGAME-12);}.cls-13{fill:#fff;}</style><linearGradient id="FINYOURGAME" x1="3.27" y1="7.12" x2="11.31" y2="7.12" gradientUnits="userSpaceOnUse"><stop offset="0" stop-color="aqua"/><stop offset="0.11" stop-color="#25dae8"/><stop offset="0.36" stop-color="#718eb7"/><stop offset="0.58" stop-color="#ae5190"/><stop offset="0.77" stop-color="#da2574"/><stop offset="0.91" stop-color="#f50a62"/><stop offset="1" stop-color="#ff005c"/></linearGradient><linearGradient id="FINYOURGAME-2" x1="12.06" y1="7.12" x2="15.4" y2="7.12" xlink:href="#FINYOURGAME"/><linearGradient id="FINYOURGAME-3" x1="16.12" y1="7.11" x2="25.23" y2="7.11" xlink:href="#FINYOURGAME"/><linearGradient id="FINYOURGAME-4" x1="26.12" y1="7.08" x2="35.63" y2="7.08" xlink:href="#FINYOURGAME"/><linearGradient id="FINYOURGAME-5" x1="16.13" y1="22.4" x2="25.69" y2="22.4" xlink:href="#FINYOURGAME"/><linearGradient id="FINYOURGAME-6" x1="26" y1="22.48" x2="35.77" y2="22.48" xlink:href="#FINYOURGAME"/><linearGradient id="FINYOURGAME-7" x1="36.58" y1="22.44" x2="45.86" y2="22.44" xlink:href="#FINYOURGAME"/><linearGradient id="FINYOURGAME-8" x1="46.77" y1="22.45" x2="56.23" y2="22.45" xlink:href="#FINYOURGAME"/><linearGradient id="FINYOURGAME-9" x1="0" y1="37.35" x2="9.59" y2="37.35" xlink:href="#FINYOURGAME"/><linearGradient id="FINYOURGAME-10" x1="9.55" y1="37.25" x2="19.11" y2="37.25" xlink:href="#FINYOURGAME"/><linearGradient id="FINYOURGAME-11" x1="18.44" y1="37.35" x2="31.8" y2="37.35" xlink:href="#FINYOURGAME"/><linearGradient id="FINYOURGAME-12" x1="32.26" y1="37.25" x2="40.3" y2="37.25" xlink:href="#FINYOURGAME"/></defs><g id="Calque_2" data-name="Calque 2"><g id="HOME"><path class="cls-1" d="M6.49,8.47l.11,5.76-3.28-.11,0-14,8-.08-.14,3.62-4.77,0,0,1.57,3.68,0,.16,3.21Z"/><path class="cls-2" d="M12.11.12,15.4,0l-.11,14.22-3.23-.08Z"/><path class="cls-3" d="M19.38,7.7l.07,6.53-3.28-.11-.05-14L19.35,0l2.57,7L22,.11,25.23,0l-.11,14.22-3.22-.08Z"/><path class="cls-4" d="M33.22,0l2.36,2.41L35.63,11l-2.16,3-7.35.22,0-14Zm-3.8,3.43-.05,7.06,3.12-.09L32.3,3.29Z"/><path class="cls-5" d="M19.52,25.15l-3.39-9.76,3.39-.13L21.05,20l1.41-4.6h3.23l-3,10v4.15l-3.13.06Z"/><path class="cls-6" d="M28.4,29.51l-2.35-2.4L26,18.58l2.16-3,5.21-.14,2.36,2.41,0,8.53-2.16,3ZM29.32,26l3.32-.14L32.45,19l-3.32.14Z"/><path class="cls-7" d="M39.71,15.46,39.89,26l2.83-.14-.18-10.44,3.28-.05,0,11-2.17,3L39,29.51l-2.36-2.4,0-11.6Z"/><path class="cls-8" d="M53.87,15.25l2.36,2.4-.15,4.21L54.35,24,56,29.66l-3.6-.06L51,24.67l-1,0,0,4.86-3.22-.08,0-14Zm-3.8,3.43,0,2.73,2.9-.09V18.53Z"/><path class="cls-9" d="M2.16,44.12,0,41.13.05,32.6l2.36-2.4,7.06.13,0,3.38-6.18-.23-.2,7.11,3.19.1,0-2-1.8-.06V35.39l5-.16V44.5Z"/><path class="cls-10" d="M13,42.87l-.22,1.53H9.55l2-14.3,4.22.14,3.31,14-3.29.13L15.52,43ZM14.89,40,14,35.87l-.6,4.19Z"/><path class="cls-11" d="M18.44,44.4,20,30.1l2.93.14,2,7,1.58-6.94,3.09-.09L31.8,44.45l-3.52-.05-.58-5.92L24.81,44.6,22.4,38.33l-.72,6.07Z"/><path class="cls-12" d="M35.44,38.69l0,1.85,4.77.15.14,3.61-8-.27.05-13.83,7.95.08,0,3.38-4.71-.23-.06,2,3.72-.15-.15,3.37Z"/><path class="cls-13" d="M6.69,9.05l.1,5.51-3.14-.11L3.6,1,11.29,1l-.13,3.46-4.56,0,0,1.51,3.52,0L10.3,8.9Z"/><path class="cls-13" d="M12.06,1.05,15.21,1,15.1,14.56,12,14.48Z"/><path class="cls-13" d="M19,8.31l.07,6.25L16,14.45,15.9,1,19,1l2.46,6.72,0-6.63,3.14-.1-.11,13.61-3.08-.08Z"/><path class="cls-13" d="M32.26,1l2.26,2.3,0,8.16L32.5,14.27l-7,.21.05-13.43ZM28.62,4.23l0,6.76,3-.09-.19-6.81Z"/><path class="cls-13" d="M19.15,25l-3.24-9.34,3.24-.13L20.61,20,22,15.63h3.09l-2.9,9.56v4l-3,.06Z"/><path class="cls-13" d="M27.65,29.18l-2.25-2.3,0-8.16,2.07-2.86,5-.13L34.66,18l.05,8.16-2.07,2.86Zm.88-3.37,3.18-.13-.18-6.58-3.18.13Z"/><path class="cls-13" d="M38.48,15.74l.17,10.07,2.7-.13-.17-10,3.14,0,0,10.55-2.06,2.86-4.52.13-2.25-2.3,0-11.1Z"/><path class="cls-13" d="M52,15.53l2.25,2.3-.14,4-1.66,2.07,1.62,5.39-3.45-.05-1.33-4.72-1,0,0,4.66-3.08-.08.05-13.42Zm-3.64,3.28,0,2.62,2.77-.09V18.67Z"/><path class="cls-13" d="M2.54,43.16.47,40.3l.05-8.16,2.26-2.31L9.54,30l0,3.23L3.66,33l-.19,6.8,3,.1,0-2-1.72-.06V34.81l4.8-.16v8.88Z"/><path class="cls-13" d="M12.91,42l-.2,1.47H9.61l2-13.69,4,.14L18.76,43.3l-3.15.13-.29-1.38Zm1.81-2.71-.85-4-.57,4Z"/><path class="cls-13" d="M18.12,43.43,19.6,29.74l2.81.14,1.95,6.69,1.51-6.64,2.95-.1L30.9,43.48l-3.37,0L27,37.76l-2.77,5.86-2.3-6-.69,5.81Z"/><path class="cls-13" d="M34.39,38l0,1.77,4.56.14L39,43.34l-7.69-.27.05-13.24,7.61.09,0,3.23-4.5-.22-.06,1.93L38,34.71l-.15,3.22Z"/></g></g></svg>