<svg xmlns="http://www.w3.org/2000/svg" viewBox="0 0 51.5 51.5"><defs><style>.cls-1{fill:#ffe09a;}</style></defs><g id="Calque_2" data-name="Calque 2"><g id="GAME_VIEW_2" data-name="GAME VIEW 2"><path class="cls-1" d="M25.75,0A25.75,25.75,0,1,0,51.5,25.75,25.78,25.78,0,0,0,25.75,0Zm0,48.28A22.53,22.53,0,1,1,48.28,25.75,22.55,22.55,0,0,1,25.75,48.28Z"/><path class="cls-1" d="M44.06,29.61A1.58,1.58,0,0,0,42.78,29H8.72a1.58,1.58,0,0,0-1.28.64A1.65,1.65,0,0,0,7.17,31a19.31,19.31,0,0,0,37.16,0A1.61,1.61,0,0,0,44.06,29.61ZM25.75,41.85A16.15,16.15,0,0,1,11,32.19H40.5A16.15,16.15,0,0,1,25.75,41.85Z"/><path class="cls-1" d="M38,22.85l-4.72-3.54L38,15.77a1.61,1.61,0,1,0-1.93-2.57L29.62,18A1.59,1.59,0,0,0,29,19.31a1.62,1.62,0,0,0,.64,1.29l6.44,4.83a1.66,1.66,0,0,0,1,.32,1.6,1.6,0,0,0,1.28-.64A1.61,1.61,0,0,0,38,22.85Z"/><path class="cls-1" d="M21.89,18,15.45,13.2a1.61,1.61,0,1,0-1.93,2.57l4.72,3.54-4.72,3.54a1.62,1.62,0,0,0-.32,2.26,1.6,1.6,0,0,0,1.28.64,1.66,1.66,0,0,0,1-.32l6.44-4.83a1.61,1.61,0,0,0,0-2.57Z"/></g></g></svg>