<svg xmlns="http://www.w3.org/2000/svg" viewBox="0 0 65.19 65.19"><defs><style>.cls-1{fill:none;stroke:#ff005c;stroke-miterlimit:10;stroke-width:3px;}.cls-2{fill:#ff005c;}</style></defs><g id="Calque_2" data-name="Calque 2"><g id="GAME_VIEW_1" data-name="GAME VIEW 1"><circle class="cls-1" cx="32.59" cy="32.59" r="31.09"/><path class="cls-2" d="M49.82,35a3.39,3.39,0,0,0,1-2.42,3.45,3.45,0,0,0-1.9-3.09,3.36,3.36,0,0,0,.36-1.54,3.46,3.46,0,0,0-1.9-3.09,3.52,3.52,0,0,0,.28-2.31,3.56,3.56,0,0,0-3.5-2.7H30a10,10,0,0,0-4.08,1A3.87,3.87,0,0,0,22.3,18.3H17.68a3.86,3.86,0,0,0-3.86,3.86V34.49a3.86,3.86,0,0,0,3.86,3.86h7.7a.78.78,0,0,0,.78-.77v-.3l.18.09L30.78,47v5.23a.79.79,0,0,0,.29.61,4.89,4.89,0,0,0,2.79.94c1.79,0,4.63-2.83,4.63-6.17a22.22,22.22,0,0,0-1.23-6.17h9.53a4,4,0,0,0,4-3.49A3.85,3.85,0,0,0,49.82,35Zm-1.65.62a2.31,2.31,0,0,1,1.1,2.18,2.43,2.43,0,0,1-2.48,2.1H36.18a.76.76,0,0,0-.72,1A24.19,24.19,0,0,1,37,47.6c0,2.52-2.24,4.62-3.09,4.62a3.35,3.35,0,0,1-1.54-.41v-5a.78.78,0,0,0-.07-.33l-4.63-10a.68.68,0,0,0-.35-.36l-1.54-.77a.74.74,0,0,0-.75,0,.77.77,0,0,0-.37.65v.78H17.68a2.32,2.32,0,0,1-2.32-2.32V22.16a2.32,2.32,0,0,1,2.32-2.32H22.3a2.31,2.31,0,0,1,2.31,2.32.77.77,0,0,0,1.32.54A7.31,7.31,0,0,1,30,21.39H44.16a2,2,0,0,1,2,1.48,1.91,1.91,0,0,1-.56,1.84.77.77,0,0,0-.2.81A.78.78,0,0,0,46,26a1.91,1.91,0,0,1,1.1,3.3.74.74,0,0,0-.2.8.76.76,0,0,0,.64.52,1.91,1.91,0,0,1,.66,3.61.77.77,0,0,0-.06,1.34Z"/><path class="cls-2" d="M25.38,21.39a.77.77,0,0,0-.77.77V36a.78.78,0,1,0,1.55,0V22.16A.77.77,0,0,0,25.38,21.39Z"/></g></g></svg>