<svg xmlns="http://www.w3.org/2000/svg" viewBox="0 0 68.18 65.55"><defs><style>.cls-1{fill:none;stroke:#ffe09a;stroke-miterlimit:10;stroke-width:5px;}</style></defs><g id="Calque_2" data-name="Calque 2"><g id="GAME_VIEW_1" data-name="GAME VIEW 1"><path class="cls-1" d="M65.52,25.38a3.36,3.36,0,0,0-2.89-2.31L44.39,21.42,37.18,4.54a3.36,3.36,0,0,0-6.18,0L23.79,21.42,5.55,23.07A3.37,3.37,0,0,0,3.65,29L17.43,41l-4.06,17.9a3.36,3.36,0,0,0,1.3,3.47,3.4,3.4,0,0,0,2,.64,3.31,3.31,0,0,0,1.72-.48l15.73-9.4,15.73,9.4a3.35,3.35,0,0,0,5-3.63L50.75,41,64.53,29A3.36,3.36,0,0,0,65.52,25.38Z"/></g></g></svg>