<svg xmlns="http://www.w3.org/2000/svg" viewBox="0 0 63.65 63.65"><defs><style>.cls-1{fill:none;stroke:aqua;stroke-miterlimit:10;stroke-width:3px;}.cls-2{fill:aqua;}</style></defs><g id="Calque_2" data-name="Calque 2"><g id="GAME_VIEW_1" data-name="GAME VIEW 1"><circle class="cls-1" cx="31.83" cy="31.83" r="30.33"/><path class="cls-2" d="M48.91,34.78A4.72,4.72,0,0,0,50,31.63a4.85,4.85,0,0,0-1-2.73A4.27,4.27,0,0,0,48,24c-1.26-1.15-3.41-1.66-6.37-1.52a26.5,26.5,0,0,0-3.91.5h0l-1.24.25a13.83,13.83,0,0,1,1-4.61c1.11-3.38,1.05-6-.21-7.69a5,5,0,0,0-4-2,2,2,0,0,0-1.53.69c-.88,1-.78,2.92-.67,3.79-1,2.81-4,9.7-6.46,11.61a.69.69,0,0,0-.13.11,8.7,8.7,0,0,0-1.56,2.33,3.29,3.29,0,0,0-1.57-.39H16.43a3.3,3.3,0,0,0-3.3,3.3v12.9a3.3,3.3,0,0,0,3.3,3.3h4.84A3.24,3.24,0,0,0,23.18,46l1.86.23a80.55,80.55,0,0,0,10.58.58c1,.07,1.83.11,2.66.11A17.24,17.24,0,0,0,42,46.59c2.43-.51,4.09-1.54,4.93-3.06a4.9,4.9,0,0,0,.54-3,5,5,0,0,0,1.8-4.12A5,5,0,0,0,48.91,34.78ZM16.43,44.47a1.16,1.16,0,0,1-1.16-1.15V30.41a1.17,1.17,0,0,1,1.16-1.16h4.84a1.16,1.16,0,0,1,1.16,1.16v12.9a1.16,1.16,0,0,1-1.16,1.16ZM46.88,33.85a1.07,1.07,0,0,0-.14,1.29,3.26,3.26,0,0,1,.37,1.33,3.18,3.18,0,0,1-1.5,2.74,1.08,1.08,0,0,0-.36,1.22,2.8,2.8,0,0,1-.22,2c-.53,1-1.71,1.64-3.5,2a21,21,0,0,1-5.79.17h-.11a78.66,78.66,0,0,1-10.32-.56h0l-.8-.1a3.17,3.17,0,0,0,.07-.69V30.41a3.19,3.19,0,0,0-.15-1,6.66,6.66,0,0,1,1.48-2.72c3.56-2.83,7.05-12.36,7.2-12.77a1.09,1.09,0,0,0,0-.54,4.92,4.92,0,0,1,.1-2.3,2.88,2.88,0,0,1,2.24,1.07c.81,1.12.77,3.12-.1,5.77C34.06,22,34,24.11,35,25.05a1.76,1.76,0,0,0,1.73.31c.49-.12,1-.21,1.38-.28l.11,0c2.43-.53,6.8-.85,8.31.53a2.27,2.27,0,0,1,.27,2.9A1.07,1.07,0,0,0,47,29.86a3,3,0,0,1,.89,1.85A3,3,0,0,1,46.88,33.85Z"/></g></g></svg>